Patient4_TMGait_0pt5_01_left_08_EMG.mot
version=1
nRows=26
nColumns=33
inDegrees=no
endheader
time	1LAddLong	2LGlutMax	3LGlutMed	4LIliopsoas	5LSemiMemb	6LBicFemLong	7LRecFem	8LVastMed	9LVastLat	10LGasMed	11LTibAnt	12lTibPost	13LPeroneusLong	14LSol	15LExtDigLong	16LFlexDigLong	17RAddLong	18RGlutMax	19RGlutMed	20RIliopsoas	21RSemiMemb	22RBicFemLong	23RRecFem	24RVastMed	25RVastLat	26RGasMed	27RTibAnt	28RTibPost	29RPeroneusLong	30RSol	31RExtDigLong	32RFlexDigLong
12.158	0.011139	0.04303	0.024414	-0.000916	0.00412	0.070953	-0.007629	0.00351	0.070038	-0.015564	0.015106	0.001068	0.006561	-0.13855	0.006714	0.00473	0.017548	0.13077	0.21133	-0.004425	-0.12985	0.11292	0.25986	0.050354	-0.078735	0.000763	-0.06073	-0.002899	-0.056	0.047302	-0.002899	-0.013275
12.159	0.005341	0.031891	0.015411	0.001831	0.013428	0.07431	-0.006104	0.007935	0.06546	-0.02594	0.016327	0.002441	0.001526	-0.089874	0.028687	0.003967	0.025024	0.15015	0.22903	0.039673	-0.13321	0.10025	0.48706	-0.038147	-0.16266	0.009003	0.016632	-0.003357	0.13702	0.025635	-0.005951	-0.007477
12.16	0.007172	0.012665	0.032349	0.001984	0.014496	0.057678	-0.025482	0.003052	0.066223	-0.031128	0.016174	0.001984	-0.010223	-0.079651	0.024719	-0.009766	-0.011902	0.11597	0.46341	0.058594	0.000763	0.016632	0.29465	-0.19898	-0.19165	0.000153	0.097351	-0.00473	0.38223	0.008087	-0.002594	-0.011292
12.161	-0.010376	-0.001068	-0.019531	-0.015564	0.011292	0.04303	-0.01236	0.004578	0.072174	-0.030212	0.007935	-0.001526	-0.006561	-0.067749	0.004883	0.006104	-0.021362	0.12238	0.26581	0.046692	0.069885	-0.1593	0.2211	-0.13443	-0.084839	-0.009918	0.095062	-0.004578	0.17975	-0.048676	-0.000763	0.003052
12.162	-0.000153	-0.007324	-0.006866	-0.002747	0.021667	0.054932	-0.013123	0.00885	0.067902	-0.033569	0.002441	-0.003967	0.01297	-0.054779	-0.016937	-0.002289	-0.00061	0.14801	0.065155	0.07019	0.067749	-0.1181	0.17822	-0.045013	0.044098	-0.027618	0.067596	0.000763	-0.13794	-0.072327	-0.003357	-0.009766
12.163	-0.002441	0.008087	-0.00824	-0.013428	0.02121	0.065155	-0.00412	0.018311	0.06012	-0.026703	0.005798	-0.00351	0.018616	-0.17853	-0.011749	0.00885	0.019684	0.17471	0.11734	0.027618	0.036011	-0.13184	0.21133	-0.094452	0.054474	-0.031738	-0.042725	0.000763	-0.1535	-0.11704	-0.003967	-0.005188
12.164	0.001678	0.03006	-0.050049	-0.022888	-0.013428	0.060577	-0.014954	0.010986	0.060577	-0.031128	-0.000153	0.000153	0.000153	-0.18173	-0.006104	0.003815	0.016327	0.19272	0.064087	0.065918	0.023346	-0.15442	0.31601	-0.20966	-0.042267	-0.035858	-0.2243	0.002441	0.024872	-0.11215	-0.003357	-0.003204
12.165	0.005798	0.021515	-0.048828	-0.019073	-0.11566	0.057068	-0.017242	0.00885	0.053101	-0.029907	0.004883	-0.004883	-0.019226	-0.1062	-0.011139	0.000305	0.001831	0.17212	0.14801	0.032654	0.024414	-0.02182	0.20203	-0.10559	-0.00061	-0.028992	-0.70694	-0.000458	0.021973	-0.10452	-0.001831	0.002594
12.166	-0.002136	0.030975	-0.027008	0.001831	-0.15656	0.0737	-0.021057	0.00412	0.061493	-0.029602	0.011292	-0.003815	-0.013885	-0.012054	0.009918	0.009003	-0.007935	0.14984	-0.057526	-0.020142	0.028534	0.019379	-0.3598	-0.018311	0.002289	0.024719	-0.81573	0.001831	-0.79071	-0.11536	-0.005188	-0.00946
12.167	0.026245	0.031281	-0.036469	-0.014343	-0.121	0.074615	-0.034027	0.006866	0.06958	-0.026703	0.014191	-0.003662	-0.009155	-0.011902	0.007172	-0.004272	-0.017242	0.12222	-0.21347	-0.039215	0.019531	0.048981	-0.57022	-0.070038	-0.083618	0.041199	-0.21774	0.000763	-0.87616	-0.083466	-0.001221	-0.007629
12.168	0.015869	0.016937	-0.03418	-0.004883	-0.007935	0.052338	-0.028839	0.002136	0.061798	-0.022278	-0.043793	-0.00473	-0.009308	0.001221	0.002594	0.022888	-0.003967	0.14877	-0.14206	-0.009918	0.023346	0.035706	-0.35507	0.096741	-0.041046	0.039673	-0.076141	0.001984	0.74554	-0.14847	-0.002899	-0.006866
12.169	0.017395	-0.003052	-0.056763	0.007629	0.1239	0.059814	-0.037689	0.00946	0.053253	-0.026703	-0.00351	0.002441	0.001221	-0.019989	0.002594	-0.007172	0	0.11383	-0.23407	0.055847	0.016937	0.024872	-0.26962	0.24414	-0.072327	0.020294	-0.017395	-0.005646	1.0681	-0.13046	-0.002289	-0.0177
12.17	0.016479	0.011292	-0.076294	0.005646	0.1329	0.034332	-0.054626	0.003662	0.057373	-0.030975	-0.005341	-0.005951	-0.016937	-0.086517	0.002594	-0.008545	0.007172	0.013428	-0.33325	0.060883	0.012512	0.0354	-0.25818	0.40039	0.11231	-0.00473	0.46478	-0.006561	0.51575	0.002289	-0.002441	-0.017242
12.171	0.005646	0.033264	0.00824	-0.010986	0.062561	0.011139	-0.03418	0.00061	0.04837	-0.03067	0.009918	0.000458	-0.02182	-0.14481	0.006561	-0.006561	0.011292	-0.019836	-0.057373	0.015259	0.000458	0.056763	0.072479	0.33859	0.15335	-0.008545	0.84137	-0.011444	0.66299	0.093842	-0.000916	-0.019073
12.172	0.009003	0.023041	0.028992	-0.023346	0.040894	0.006561	-0.041046	0.012512	0.058746	-0.036621	0.002441	-0.001526	-0.013123	-0.076752	0.013733	-0.00351	0.007477	-0.014954	0.14923	-0.069427	-0.000458	0.054016	0.10971	0.34134	0.11444	0.005341	0.97412	-0.002747	0.046692	-0.036469	0.003052	-0.018616
12.173	0.014038	0.024109	0.045471	-0.027924	0.038605	0.018005	-0.054474	0.002441	0.050964	-0.037384	0.00885	-0.001526	-0.019989	0.021362	0.002899	-0.001984	0.007782	0.061188	0.13275	-0.094757	-0.001831	0.040131	-0.091248	0.2385	0.052948	0.014954	0.66101	-0.005493	-0.10437	-0.32333	-0.006561	-0.008698
12.174	0.003052	0.03067	0.048523	-0.009155	0.022736	0.063629	-0.061035	0.007935	0.044098	-0.036163	0.011749	-0.007324	-0.012512	0.076447	0.001221	-0.003662	-0.003662	0.14557	-0.001984	-0.069885	-0.003357	0.055389	-0.38116	0.29511	0.19959	0.014648	-0.00824	-0.000763	-0.5278	-0.31937	-0.005188	-0.001984
12.175	0.009613	0.005035	0.010071	0.001678	0.012817	0.06012	-0.055542	0.003052	0.047455	-0.028229	0.008087	0.004425	0.005798	0.032349	0.00351	-0.000153	0.013275	0.068359	-0.033875	0.040436	-0.024261	0.028076	-0.298	0.11673	0.1741	0.015869	-0.17548	-0.001221	-0.94818	-0.27832	-0.004883	0.000305
12.176	0.007782	-0.043488	0.016937	-0.003815	0.039825	0.054016	-0.066376	0.005798	0.056915	-0.033569	0.017853	-0.005188	0.067139	-0.056458	-0.003662	-0.000153	0.036316	0.19974	0.16342	0.12116	-0.030975	0.037689	-0.1976	-0.32974	0.050354	0.009766	-0.21729	-0.002747	-0.68939	-0.17212	-0.001373	-0.004578
12.177	0.003967	-0.017548	0.057068	0.012665	0.038147	0.080414	-0.080109	0.010376	0.045624	0.045319	0.012665	-0.003204	0.083313	-0.1445	-0.003967	0	0.016785	0.16327	0.21271	0.092621	-0.036011	0.022736	-0.091095	-0.38925	0.015564	0.007782	-0.30579	-0.006714	0.46936	-0.177	-0.002441	0.000153
12.178	0.010223	-0.054779	0.072937	0.007782	0.01709	0.12085	-0.063782	0.009613	0.051422	-0.046387	0.021515	-0.001831	-0.074768	-0.13504	0.018005	-0.005188	0.010529	0.085754	0.36941	0.045319	-0.022888	0.054474	0.1149	-0.31021	0.069733	0.007477	-0.22125	-0.006104	0.37766	0.049744	-0.000763	-0.000458
12.179	0.005646	-0.030518	-0.010986	-0.021667	0.006866	0.13931	-0.080414	0.015564	0.049896	0.017395	0.004425	-0.004578	-0.071411	-0.09201	0.00946	0.003815	-0.004425	0.088806	0.26642	0.050507	-0.018768	0.068207	0.29343	-0.057526	0.10025	0.000305	0.32044	-0.003052	-0.52765	0.074615	-0.003052	-0.00946
12.18	-0.006256	-0.032196	-0.037842	-0.022583	-0.034943	0.10162	-0.088654	0.016174	0.041504	-0.034027	0.002594	-0.013885	0.35034	-0.078125	0.021515	-0.003815	-0.006714	0.032043	0.021057	0.03952	-0.017395	0.061035	0.3064	0.06012	0.043945	-0.003967	-0.26062	-0.005493	-0.59616	0.094299	-0.002899	-0.000916
12.181	-0.006104	-0.06134	-0.075684	-0.020142	-0.064392	0.017242	-0.094604	-0.000153	0.046844	-0.039978	-0.010681	-0.005646	0.38086	-0.043335	0.032654	0.009766	0.005798	0.015869	0.13412	-0.026703	-0.02182	0.056152	0.33615	0.2533	-0.0177	-0.005493	-0.5722	-0.003357	0.67337	0.31326	-0.002136	-0.011597
12.182	-0.000763	-0.087891	-0.10941	-0.009918	-0.025024	-0.041504	-0.081482	0.00885	0.046997	-0.023193	-0.003815	0.000153	0.1413	-0.04837	0.018616	-0.004272	0.011139	0.077972	0.084991	-0.000916	-0.016785	0.044861	0.46432	0.39475	-0.025787	-0.010986	-0.62744	-0.008087	1.5369	0.34515	-0.002136	-0.005798
12.183	0.007324	-0.024872	-0.089569	-0.010071	-0.023651	-0.00351	-0.07843	0.011902	0.041351	-0.050964	-0.009155	-0.001678	-0.011444	-0.02655	0.014801	0.005951	0.001068	0.11536	0.052643	0.027008	-0.029755	0.062103	0.20615	0.36133	-0.062866	-0.004272	-0.30548	-0.009003	0.38696	0.22156	-0.002747	-0.010681
